<?xml version="1.0" encoding="UTF-8"?>
<svg width="211px" height="199px" viewBox="0 0 211 199" version="1.1" xmlns="http://www.w3.org/2000/svg" xmlns:xlink="http://www.w3.org/1999/xlink">
    <!-- Generator: Sketch 49.1 (51147) - http://www.bohemiancoding.com/sketch -->
    <title>Group 5</title>
    <desc>Created with Sketch.</desc>
    <defs></defs>
    <g id="Splash-Login-Signup" stroke="none" stroke-width="1" fill="none" fill-rule="evenodd">
        <g id="Group-5" transform="translate(0.000000, -40.000000)">
            <g id="icon-B" transform="translate(15.000000, 0.000000)" fill="#1FDB84">
                <g id="Group" transform="translate(17.539936, 40.830671)">
                    <g id="Group-2">
                        <path d="M119.041534,29.7082426 L119.041534,75.0479233 C119.041534,100.774159 98.1862992,121.629393 72.4600639,121.629393 C46.7338286,121.629393 25.8785942,100.774159 25.8785942,75.0479233 L25.8785942,29.7082426 C27.8648215,40.7896952 37.5512846,49.1693291 49.1693291,49.1693291 C62.0324467,49.1693291 72.4600639,38.7417119 72.4600639,25.8785942 C72.4600639,38.7417119 82.8876811,49.1693291 95.7507987,49.1693291 C107.368843,49.1693291 117.055306,40.7896952 119.041534,29.7082426 Z M49.1693291,64.6964856 L49.1693291,75.0479233 C49.1693291,87.911041 59.5969462,98.3386581 72.4600639,98.3386581 C85.3231816,98.3386581 95.7507987,87.911041 95.7507987,75.0479233 L95.7507987,64.6964856 L49.1693291,64.6964856 Z" id="Combined-Shape"></path>
                        <path d="M41.4057508,0 L56.9329073,0 L56.9329073,18.115016 C56.9329073,22.4027219 53.457035,25.8785942 49.1693291,25.8785942 L49.1693291,25.8785942 C44.8816232,25.8785942 41.4057508,22.4027219 41.4057508,18.115016 L41.4057508,0 Z" id="Rectangle-2"></path>
                        <path d="M5.46325879,23.5782748 L20.9904153,23.0031949 L20.9904153,41.6932907 C20.9904153,45.9809966 17.5145429,49.456869 13.2268371,49.456869 L13.2268371,49.456869 C8.93913118,49.456869 5.46325879,45.9809966 5.46325879,41.6932907 L5.46325879,23.5782748 Z" id="Rectangle-2" transform="translate(13.226837, 36.230032) rotate(-270.000000) translate(-13.226837, -36.230032) "></path>
                        <path d="M123.929712,23.5782748 L139.456869,23.0031949 L139.456869,41.6932907 C139.456869,45.9809966 135.980997,49.456869 131.693291,49.456869 L131.693291,49.456869 C127.405585,49.456869 123.929712,45.9809966 123.929712,41.6932907 L123.929712,23.5782748 Z" id="Rectangle-2" transform="translate(131.693291, 36.230032) scale(-1, 1) rotate(-270.000000) translate(-131.693291, -36.230032) "></path>
                        <path d="M87.9872204,0 L103.514377,0 L103.514377,18.115016 C103.514377,22.4027219 100.038505,25.8785942 95.7507987,25.8785942 L95.7507987,25.8785942 C91.4630928,25.8785942 87.9872204,22.4027219 87.9872204,18.115016 L87.9872204,0 Z" id="Rectangle-2"></path>
                    </g>
                </g>
            </g>
            <g id="Page-1" transform="translate(0.000000, 195.000000)" fill="#313A5A">
                <path d="M189.68335,37.9907 C189.22585,38.5042 188.68485,38.8727 187.96735,38.9047 C187.54435,38.9232 187.15085,38.8507 186.95135,38.4257 C186.74185,37.9782 186.76185,37.5172 187.09735,37.1422 C187.29485,36.9212 187.55185,36.7102 187.82485,36.6097 C188.54585,36.3432 189.28635,36.1312 190.02485,35.9157 C190.32235,35.8287 190.63385,35.7877 190.99135,35.7152 C190.63785,36.5747 190.26185,37.3422 189.68335,37.9907 M147.00685,18.9477 C146.99935,19.0532 146.93185,19.1942 146.84685,19.2482 C145.65435,20.0032 145.06285,21.1292 144.86535,22.4827 C144.70385,23.5872 144.80885,24.6722 145.25335,25.7097 C145.50135,26.2882 145.87435,26.7782 146.37535,27.2067 C145.53335,28.3097 144.45885,28.8362 143.10085,28.7132 C142.36335,28.6472 141.86335,28.2102 141.52085,27.5772 C141.09085,26.7857 140.94085,25.9182 140.91135,25.0387 C140.81885,22.2552 141.18185,19.5377 142.21335,16.9332 C142.55185,16.0752 142.99335,15.2737 143.68885,14.6442 C144.18985,14.1897 144.76885,13.9307 145.46185,14.0007 C146.10335,14.0647 146.48935,14.4602 146.73435,15.0187 C147.04735,15.7332 147.10685,16.4952 147.09585,17.2612 C147.08835,17.8237 147.04985,18.3862 147.00685,18.9477 M209.79335,19.0842 C209.22085,18.7987 208.60685,18.7207 207.98085,18.7927 C207.43735,18.8542 207.06785,19.1362 206.88035,19.6897 C206.49235,20.8352 206.09085,21.9792 205.64385,23.1027 C205.05185,24.5897 204.30785,25.9987 203.20985,27.1852 C202.82535,27.6007 202.38885,27.9682 201.97685,28.3582 C201.95535,28.3402 201.93485,28.3227 201.91335,28.3047 C201.92535,28.2307 201.93685,28.1567 201.94935,28.0837 C202.34185,25.8577 202.76435,23.6372 203.11735,21.4057 C203.47385,19.1537 203.78035,16.8942 204.06985,14.6322 C204.20435,13.5842 204.30785,12.5247 204.31285,11.4702 C204.31885,10.0902 203.50085,9.1052 202.16985,8.7452 C200.85085,8.3882 199.51185,8.3757 198.16535,8.5637 C196.88035,8.7437 196.06485,9.4397 195.76885,10.7182 C195.74135,10.8382 195.69285,10.9552 195.67085,11.0767 C195.34385,12.8577 195.00235,14.6377 194.70035,16.4237 C194.32085,18.6727 193.89485,20.9102 193.20285,23.0872 C192.86435,24.1517 192.50535,25.2102 191.86935,26.1432 C191.70035,26.3907 191.48535,26.6262 191.24335,26.7997 C190.77685,27.1332 190.29335,26.9477 190.11385,26.4052 C190.08735,26.3242 190.06885,26.2397 190.05435,26.1552 C189.89885,25.2472 189.99635,24.3382 190.14235,23.4477 C190.47785,21.4062 190.85985,19.3727 191.24135,17.3387 C191.52435,15.8307 191.87435,14.3342 192.12385,12.8207 C192.34485,11.4807 191.76385,10.5092 190.49835,10.0077 C189.01685,9.4202 187.46685,9.3047 185.91035,9.5827 C184.54535,9.8257 183.60385,10.6302 183.18635,11.9847 C182.55235,14.0427 182.17585,16.1527 181.91535,18.2857 C181.84685,18.8432 181.83935,19.4177 181.69535,19.9557 C181.28335,21.5062 180.67285,22.9877 179.97485,24.4327 C179.53835,25.3362 179.05185,26.2122 178.40835,26.9887 C178.06535,27.4027 177.68835,27.7847 177.15835,27.9592 C176.48535,28.1807 176.05085,27.9192 175.93585,27.2282 C175.91535,27.1057 175.90635,26.9812 175.90235,26.8577 C175.86235,25.6992 176.12335,24.5837 176.39685,23.4712 C176.94635,21.2312 177.54035,19.0017 178.04235,16.7512 C178.33335,15.4457 178.42185,14.1067 178.19185,12.7682 C177.86685,10.8752 176.69335,9.5682 174.91985,9.2252 C172.73735,8.8027 170.64285,9.1237 168.66735,10.1342 C167.00785,10.9832 165.77285,12.2932 164.77685,13.8457 C164.72085,13.9322 164.66285,14.0182 164.59035,14.1267 C164.62235,13.6812 164.67285,13.2827 164.67385,12.8842 C164.67685,11.5647 164.00885,10.6937 162.73735,10.3637 C161.62785,10.0762 160.50435,10.1582 159.37935,10.2737 C157.57985,10.4587 156.43885,11.4247 156.02385,13.1762 C155.64185,14.7892 155.31935,16.4167 154.99535,18.0427 C154.78535,19.0962 154.71485,20.1772 154.30685,21.1892 C153.96335,22.0432 153.60285,22.8827 152.93535,23.5442 C152.61535,23.8612 152.24835,24.1032 151.78535,24.2477 C151.79685,24.1432 151.80535,24.0787 151.81085,24.0142 C151.87835,23.1592 151.99335,22.3047 151.99835,21.4497 C152.00235,20.6487 151.82735,19.8737 151.19135,19.2867 C151.13285,19.2332 151.12835,19.0967 151.13585,19.0012 C151.26485,17.3952 151.25685,15.7952 150.85985,14.2212 C150.28835,11.9567 149.01785,10.2662 146.71885,9.5842 C143.70535,8.6907 140.81885,9.1207 138.13235,10.7367 C135.79585,12.1432 134.21635,14.2202 133.10435,16.6742 C132.15585,18.7672 131.66935,20.9752 131.52085,23.2592 C131.42135,24.7972 131.43985,26.3332 131.84385,27.8372 C132.61335,30.6977 134.34185,32.6432 137.25235,33.4212 C138.93485,33.8717 140.63985,33.7942 142.33835,33.5062 C145.59985,32.9527 148.19335,31.3517 150.00085,28.5472 C150.09985,28.3937 150.20635,28.3437 150.38785,28.3267 C151.18435,28.2507 151.98085,28.1662 152.77185,28.0467 C153.12985,27.9932 153.47435,27.8517 153.84435,27.7442 C153.84435,28.3842 153.81685,28.9957 153.84985,29.6037 C153.92585,30.9767 154.63135,31.7802 155.96985,32.0192 C157.19485,32.2377 158.42285,32.1727 159.64535,31.9762 C160.29235,31.8717 160.90585,31.6682 161.43235,31.2602 C162.21585,30.6532 162.46785,29.7852 162.60985,28.8592 C163.09285,25.7017 163.85985,22.6162 165.02935,19.6392 C165.44835,18.5737 165.90985,17.5172 166.66035,16.6347 C166.93735,16.3092 167.28935,16.0122 167.66735,15.8167 C168.19735,15.5427 168.58935,15.7762 168.67735,16.3687 C168.72885,16.7132 168.74485,17.0762 168.69535,17.4192 C168.62435,17.9177 168.49835,18.4097 168.36235,18.8962 C167.95335,20.3647 167.48835,21.8187 167.11935,23.2972 C166.68685,25.0297 166.49635,26.7942 166.79535,28.5757 C167.17035,30.8137 168.40185,32.3287 170.61335,32.9702 C171.73385,33.2952 172.88385,33.3587 174.04635,33.2942 C176.78435,33.1422 179.13835,32.1287 181.05035,30.1507 C181.55935,29.6247 182.00735,29.0397 182.49135,28.4722 C182.52685,28.5397 182.56885,28.6232 182.61435,28.7052 C183.72535,30.7282 185.40235,31.7652 187.74035,31.6117 C189.55585,31.4922 191.03685,30.6757 192.26585,29.3627 C192.35885,29.2637 192.45035,29.1627 192.59985,29.0012 C192.57335,29.1947 192.56335,29.2977 192.54635,29.3997 C192.42285,30.1242 192.28735,30.8462 192.17985,31.5722 C192.14385,31.8177 192.04785,31.9097 191.80135,31.9652 C190.00735,32.3727 188.20985,32.7657 186.43185,33.2337 C185.04785,33.5987 183.70535,34.0982 182.48235,34.8697 C180.99735,35.8062 180.24835,37.1197 180.37435,38.9002 C180.49435,40.5932 181.23385,41.8947 182.77685,42.6592 C183.28485,42.9107 183.83485,43.1072 184.38685,43.2337 C186.32135,43.6762 188.27285,43.6292 190.21785,43.2992 C193.15235,42.8012 195.56685,41.3987 197.43285,39.0727 C198.74935,37.4322 199.67285,35.5767 200.36985,33.6042 C200.49535,33.2497 200.68635,33.0592 201.03985,32.9242 C203.96435,31.8097 206.38335,30.0427 208.08935,27.3752 C209.35835,25.3902 210.13035,23.2027 210.68285,20.9312 C210.88135,20.1202 210.54035,19.4577 209.79335,19.0842" id="Fill-1"></path>
                <path d="M84.0891,37.98975 C83.6316,38.50275 83.0911,38.87225 82.3736,38.90475 C81.9506,38.92325 81.5566,38.85225 81.3566,38.42775 C81.1456,37.98075 81.1651,37.51925 81.5001,37.14325 C81.6976,36.92225 81.9541,36.71125 82.2271,36.61025 C82.9476,36.34425 83.6886,36.13175 84.4271,35.91575 C84.7246,35.82875 85.0366,35.78825 85.3956,35.71525 C85.0431,36.57325 84.6666,37.34075 84.0891,37.98975 M41.4101,18.96525 C41.4061,19.06175 41.3396,19.19325 41.2611,19.24275 C40.1066,19.96925 39.5071,21.04725 39.2916,22.35875 C39.0956,23.55225 39.1776,24.73075 39.7246,25.82275 C39.9796,26.33375 40.3681,26.77725 40.7116,27.27375 C40.0601,28.30225 38.5246,28.95625 37.2896,28.68125 C36.6596,28.54175 36.2306,28.13975 35.9296,27.58725 C35.4986,26.79675 35.3461,25.92925 35.3161,25.05025 C35.2201,22.25625 35.5871,19.52975 36.6226,16.91675 C36.9591,16.06875 37.3991,15.27725 38.0841,14.65075 C38.4506,14.31575 38.8686,14.07875 39.3701,14.01225 C40.1936,13.90275 40.8136,14.21075 41.1116,14.98575 C41.3006,15.47725 41.4361,16.01275 41.4641,16.53575 C41.5076,17.34225 41.4431,18.15525 41.4101,18.96525 M104.2346,19.10475 C103.7501,18.85025 103.2266,18.76525 102.6846,18.77275 C101.8666,18.78475 101.5011,19.04675 101.2491,19.81375 C100.6856,21.52675 100.0961,23.22875 99.2456,24.82625 C98.5666,26.10275 97.7276,27.25175 96.5831,28.15625 C96.5081,28.21575 96.4281,28.27025 96.3061,28.35875 C96.3286,28.22625 96.3386,28.16175 96.3496,28.09725 C96.7441,25.86175 97.1681,23.63175 97.5231,21.39125 C97.8801,19.13925 98.1871,16.87925 98.4756,14.61775 C98.6101,13.56975 98.7116,12.51025 98.7161,11.45525 C98.7211,10.09375 97.8986,9.10575 96.5871,8.74775 C95.2971,8.39425 93.9856,8.38375 92.6671,8.54325 C91.2951,8.70975 90.4386,9.45275 90.1421,10.81375 C89.9981,11.47525 89.8526,12.13625 89.7316,12.80175 C89.3061,15.13775 88.9196,17.48075 88.4611,19.81075 C88.1231,21.52275 87.6566,23.20625 86.9751,24.81975 C86.6966,25.48025 86.3911,26.13025 85.8656,26.63975 C85.6236,26.87375 85.3431,27.03375 84.9866,26.92225 C84.6341,26.81275 84.4961,26.51625 84.4721,26.19675 C84.4291,25.63775 84.3656,25.06425 84.4411,24.51525 C84.6921,22.69275 84.9661,20.87225 85.2981,19.06275 C85.6581,17.10375 86.1136,15.16175 86.4896,13.20525 C86.8216,11.47925 86.1781,10.38275 84.5431,9.86625 C83.1956,9.44025 81.8071,9.32475 80.4121,9.56175 C79.0101,9.79925 78.0261,10.58275 77.5951,11.97225 C76.9566,14.02825 76.5831,16.13925 76.3206,18.27175 C76.2506,18.83925 76.2446,19.42425 76.0951,19.96975 C75.6016,21.76725 74.8936,23.48575 74.0196,25.13325 C73.5901,25.94375 73.1281,26.74175 72.4456,27.37025 C72.1791,27.61575 71.8546,27.83625 71.5171,27.96025 C70.8811,28.19475 70.4551,27.90775 70.3426,27.24175 C70.3206,27.11075 70.3106,26.97675 70.3066,26.84325 C70.2686,25.68525 70.5311,24.56975 70.8046,23.45775 C71.3526,21.22725 71.9426,19.00625 72.4436,16.76525 C72.7346,15.45975 72.8246,14.12175 72.5981,12.78225 C72.2661,10.81575 71.1126,9.58325 69.1681,9.19875 C67.5096,8.87025 65.8771,9.06425 64.2891,9.60675 C62.0591,10.36925 60.4431,11.88725 59.1876,13.83325 C59.1276,13.92625 59.0666,14.01825 58.9936,14.13075 C59.0246,13.69475 59.0771,13.29675 59.0786,12.89825 C59.0821,11.56125 58.4171,10.68675 57.1271,10.36275 C55.9011,10.05525 54.6631,10.13575 53.4311,10.33575 C52.6426,10.46375 51.9201,10.74675 51.3616,11.34725 C50.8821,11.86275 50.6171,12.49675 50.4241,13.16075 C49.8911,14.99675 49.5596,16.87575 49.2871,18.76325 C49.0926,20.10875 48.7391,21.39125 48.0706,22.57775 C47.7181,23.20275 47.2661,23.73875 46.6136,24.07375 C46.4866,24.13925 46.3496,24.18525 46.1826,24.25375 C46.1971,24.13925 46.2066,24.08375 46.2111,24.02775 C46.2801,23.16375 46.3966,22.29975 46.4016,21.43525 C46.4061,20.64525 46.2306,19.87725 45.6041,19.29775 C45.5526,19.25025 45.5291,19.14775 45.5321,19.07225 C45.5421,18.78675 45.5741,18.50125 45.5886,18.21525 C45.6601,16.79675 45.5906,15.38925 45.2086,14.01375 C44.5676,11.70675 43.1751,10.09275 40.8081,9.49075 C37.8841,8.74625 35.1031,9.17925 32.5241,10.74425 C30.1916,12.15875 28.6131,14.23225 27.5031,16.68775 C26.5446,18.80875 26.0586,21.04575 25.9186,23.35975 C25.8226,24.93725 25.8581,26.50925 26.3046,28.04425 C27.0836,30.72275 28.7351,32.56675 31.4496,33.36625 C33.0556,33.83925 34.6936,33.80125 36.3326,33.57025 C39.7801,33.08425 42.5281,31.47225 44.4291,28.51125 C44.5201,28.36875 44.6256,28.34075 44.7786,28.32975 C45.3591,28.28925 45.9431,28.26425 46.5156,28.17125 C47.0946,28.07825 47.6621,27.91175 48.2476,27.77375 C48.2476,28.37075 48.2211,28.98175 48.2536,29.58975 C48.3276,30.97825 49.0261,31.77575 50.3891,32.02075 C51.6041,32.23925 52.8231,32.17125 54.0361,31.97925 C54.6831,31.87525 55.2971,31.67425 55.8256,31.26925 C56.6126,30.66575 56.8701,29.79875 57.0121,28.87325 C57.4936,25.72475 58.2551,22.64775 59.4196,19.67925 C59.8451,18.59475 60.3266,17.53375 61.0656,16.61625 C61.3616,16.24925 61.6916,15.91675 62.1596,15.77125 C62.6361,15.62325 62.9486,15.79075 63.0676,16.27075 C63.1156,16.46325 63.1651,16.67325 63.1366,16.86375 C63.0346,17.54025 62.9416,18.22225 62.7661,18.88125 C62.3721,20.36375 61.8901,21.82375 61.5196,23.31225 C61.0911,25.03475 60.9161,26.78775 61.1936,28.56275 C61.5641,30.93225 63.0171,32.50575 65.3371,33.05075 C66.8491,33.40625 68.3676,33.39475 69.8856,33.12625 C72.5896,32.64875 74.7206,31.23475 76.3881,29.08375 C76.5486,28.87725 76.7041,28.66675 76.8761,28.43975 C76.9836,28.63475 77.0701,28.80425 77.1671,28.96675 C78.1861,30.67075 79.6651,31.61775 81.6731,31.62825 C83.5121,31.63875 85.0666,30.92925 86.3816,29.66175 C86.5786,29.47175 86.7991,29.30625 86.9826,29.15125 C86.9776,29.18725 86.9701,29.28775 86.9531,29.38675 C86.8286,30.12025 86.6931,30.85225 86.5821,31.58725 C86.5471,31.82125 86.4491,31.90925 86.2191,31.96225 C84.3616,32.39125 82.4991,32.80225 80.6576,33.28975 C79.3011,33.64775 77.9866,34.14625 76.8031,34.92725 C74.5771,36.39575 74.0596,39.35225 75.6691,41.44025 C76.4551,42.46125 77.5591,42.96475 78.7766,43.23725 C80.7131,43.67125 82.6621,43.62925 84.6086,43.30075 C87.5646,42.80175 89.9901,41.38775 91.8636,39.03925 C93.1936,37.37075 94.1116,35.48075 94.8226,33.48425 C94.9181,33.21675 95.0591,33.07425 95.3256,32.97425 C98.1241,31.91725 100.4951,30.28375 102.2151,27.79125 C103.6556,25.70275 104.4956,23.35875 105.0896,20.91675 C105.2811,20.12975 104.9536,19.48225 104.2346,19.10475" id="Fill-4"></path>
                <path d="M119.80395,23.2197 C119.27445,24.4222 118.63845,25.5707 117.63295,26.4477 C117.26695,26.7672 116.82845,27.0447 116.37545,27.2142 C115.05595,27.7082 114.10295,27.0727 114.09645,25.6617 C114.09095,24.4427 114.14445,23.2162 114.28745,22.0067 C114.87245,17.0472 115.88195,12.1642 116.99145,7.2997 C117.04245,7.0767 117.12195,7.0022 117.34595,7.0152 C117.97495,7.0507 118.60895,7.0247 119.23145,7.1002 C120.76495,7.2862 121.61445,8.1557 121.87495,9.7377 C121.91645,9.9917 121.96395,10.2467 121.98095,10.5027 C122.01895,11.0932 122.03945,11.6847 122.06095,12.1477 C121.94545,16.0572 121.33695,19.7347 119.80395,23.2197 M124.87545,1.4732 C122.95045,0.8032 120.95445,0.5597 118.93395,0.5717 C117.20845,0.5817 115.47995,0.6567 113.75895,0.7912 C111.12795,0.9967 108.54445,1.4952 106.02445,2.2902 C105.05395,2.5967 104.07595,2.8987 103.21495,3.4742 C102.48095,3.9647 102.05495,4.6372 101.97295,5.5267 C101.90845,6.2312 101.99245,6.9202 102.17545,7.5952 C102.48745,8.7477 102.98745,9.7987 103.93395,10.5767 C104.66695,11.1792 105.46295,11.3177 106.32145,10.8392 C106.67945,10.6402 107.03745,10.4397 107.39595,10.2412 C107.57745,10.1412 107.75995,10.0447 107.99245,9.9192 C107.94345,10.1507 107.90945,10.3257 107.86945,10.4992 C106.83895,14.9437 105.93095,19.4087 105.74445,23.9867 C105.68595,25.4197 105.68395,26.8502 106.00395,28.2602 C106.60945,30.9282 108.20845,32.5902 110.92695,33.1197 C112.39745,33.4057 113.87045,33.3507 115.34445,33.1657 C118.01295,32.8317 120.46695,31.9132 122.68945,30.4027 C126.17745,28.0337 128.48645,24.7662 129.90045,20.8322 C130.69995,18.6077 131.12295,16.3062 131.25595,13.9517 C131.36945,11.9432 131.31645,9.9447 130.80895,7.9812 C129.97745,4.7667 128.03045,2.5697 124.87545,1.4732" id="Fill-6"></path>
                <path d="M14.9702,14.5454 C13.8702,15.1624 12.5742,15.5034 11.3147,15.5474 C11.4512,14.7714 11.5697,14.0199 11.7182,13.2739 C12.1232,11.2354 12.5477,9.2009 12.9472,7.1614 C13.0047,6.8669 13.0952,6.7359 13.4207,6.7124 C14.2047,6.6554 14.9832,6.6274 15.7572,6.7914 C17.3287,7.1244 18.0682,8.0679 18.0202,9.6754 C17.9537,11.8934 16.8682,13.4804 14.9702,14.5454 M14.2242,26.5729 C13.5557,27.2399 12.7357,27.5889 11.7732,27.5579 C11.1052,27.5364 10.6622,27.2024 10.4267,26.5884 C10.1422,25.8489 10.1102,25.0729 10.1797,24.3014 C10.2997,22.9719 10.4687,21.6459 10.6102,20.3184 C10.6287,20.1419 10.7057,20.0729 10.8762,20.0604 C11.4662,20.0184 12.0557,19.9694 12.8557,19.9059 C13.2292,19.9534 13.8162,19.9769 14.3767,20.1119 C15.2552,20.3239 15.7992,20.9234 15.8557,21.8284 C15.9677,23.6234 15.5367,25.2634 14.2242,26.5729 M21.3152,17.4859 C20.7222,17.1549 20.0732,16.9224 19.4672,16.6524 C19.5012,16.6384 19.5792,16.6079 19.6562,16.5749 C20.2497,16.3169 20.8707,16.1074 21.4322,15.7919 C24.4297,14.1069 26.3067,11.6479 26.5527,8.1274 C26.6532,6.6879 26.4492,5.2854 25.7162,4.0079 C24.9117,2.6054 23.6392,1.8069 22.1522,1.3004 C20.4517,0.7214 18.6847,0.5639 16.9072,0.5174 C14.3747,0.4519 11.8472,0.5724 9.3297,0.8534 C7.1847,1.0934 5.0632,1.4624 2.9967,2.1049 C1.8057,2.4759 0.8172,3.1019 0.3727,4.3329 C-0.0413,5.4809 -0.1233,6.6664 0.1912,7.8529 C0.4022,8.6474 0.8137,9.3324 1.7052,9.4574 C2.1727,9.5229 2.6757,9.4469 3.1462,9.3514 C3.7022,9.2394 4.2407,9.0374 4.8397,8.8589 C4.7917,9.0169 4.7597,9.1244 4.7262,9.2324 C3.4037,13.5034 2.2362,17.8069 1.9857,22.3019 C1.8802,24.1964 1.9552,26.0819 2.4717,27.9239 C2.9042,29.4639 3.6687,30.7904 5.0147,31.7199 C6.1007,32.4699 7.3327,32.8189 8.6242,32.9859 C10.2347,33.1949 11.8447,33.1384 13.4502,32.9284 C15.5182,32.6574 17.5067,32.1194 19.3467,31.1084 C20.9077,30.2504 22.2162,29.1184 23.0992,27.5499 C24.1467,25.6899 24.4417,23.6859 24.1077,21.5989 C23.8217,19.8079 22.9237,18.3849 21.3152,17.4859" id="Fill-8"></path>
            </g>
        </g>
    </g>
</svg>