<?xml version="1.0" encoding="UTF-8"?>
<svg width="194px" height="34px" viewBox="0 0 194 34" version="1.1" xmlns="http://www.w3.org/2000/svg" xmlns:xlink="http://www.w3.org/1999/xlink">
    <!-- Generator: Sketch 49.1 (51147) - http://www.bohemiancoding.com/sketch -->
    <title>Group 15</title>
    <desc>Created with Sketch.</desc>
    <defs></defs>
    <g id="Page-1" stroke="none" stroke-width="1" fill="none" fill-rule="evenodd">
        <g id="Dashboard" transform="translate(-26.000000, -26.000000)" fill="#FFFFFF">
            <g id="top_open">
                <g id="Group-15" transform="translate(22.000000, 16.000000)">
                    <g id="icon-w">
                        <g id="Group" transform="translate(4.677316, 10.888179)">
                            <g id="Group-2">
                                <path d="M6.90095847,7.92219801 C7.43061908,10.8772521 10.0136759,13.1118211 13.1118211,13.1118211 C16.5419858,13.1118211 19.3226837,10.3311232 19.3226837,6.90095847 C19.3226837,10.3311232 22.1033816,13.1118211 25.5335463,13.1118211 C28.6717555,13.1118211 31.2777235,10.8104414 31.7444089,7.7957057 L31.7444089,20.0127796 C31.7444089,26.873109 26.1830131,32.4345048 19.3226837,32.4345048 C12.4623543,32.4345048 6.90095847,26.873109 6.90095847,20.0127796 L6.90095847,7.92219801 Z M13.1118211,17.2523962 L13.1118211,20.0127796 C13.1118211,23.4429443 15.892519,26.2236422 19.3226837,26.2236422 C22.7528484,26.2236422 25.5335463,23.4429443 25.5335463,20.0127796 L25.5335463,17.2523962 L13.1118211,17.2523962 Z" id="Combined-Shape"></path>
                                <path d="M11.0415335,0 L15.1821086,0 L15.1821086,4.83067093 C15.1821086,5.97405916 14.2552093,6.90095847 13.1118211,6.90095847 L13.1118211,6.90095847 C11.9684329,6.90095847 11.0415335,5.97405916 11.0415335,4.83067093 L11.0415335,0 Z" id="Rectangle-2"></path>
                                <path d="M1.53354633,6.36421725 L5.67412141,6.05750799 L5.67412141,11.1948882 C5.67412141,12.3382764 4.7472221,13.2651757 3.60383387,13.2651757 L3.60383387,13.2651757 C2.46044563,13.2651757 1.53354633,12.3382764 1.53354633,11.1948882 L1.53354633,6.36421725 Z" id="Rectangle-2" transform="translate(3.603834, 9.661342) rotate(-270.000000) translate(-3.603834, -9.661342) "></path>
                                <path d="M32.971246,6.36421725 L37.1118211,6.05750799 L37.1118211,11.1948882 C37.1118211,12.3382764 36.1849218,13.2651757 35.0415335,13.2651757 L35.0415335,13.2651757 C33.8981453,13.2651757 32.971246,12.3382764 32.971246,11.1948882 L32.971246,6.36421725 Z" id="Rectangle-2" transform="translate(35.041534, 9.661342) scale(-1, 1) rotate(-270.000000) translate(-35.041534, -9.661342) "></path>
                                <path d="M23.4632588,0 L27.6038339,0 L27.6038339,4.83067093 C27.6038339,5.97405916 26.6769346,6.90095847 25.5335463,6.90095847 L25.5335463,6.90095847 C24.3901581,6.90095847 23.4632588,5.97405916 23.4632588,4.83067093 L23.4632588,0 Z" id="Rectangle-2"></path>
                            </g>
                        </g>
                    </g>
                    <g id="Page-1" transform="translate(59.000000, 14.000000)">
                        <path d="M125.018572,25.039325 C124.717037,25.3777682 124.360469,25.6206432 123.887572,25.6417341 C123.608776,25.6539273 123.349424,25.6061432 123.217935,25.3260295 C123.079856,25.0310864 123.093037,24.7272455 123.314162,24.4800864 C123.444333,24.3344273 123.613719,24.1953591 123.793651,24.1291205 C124.268856,23.9534727 124.756912,23.8137455 125.243651,23.6717114 C125.439731,23.6143705 125.645037,23.5873477 125.880662,23.5395636 C125.647674,24.1060523 125.399856,24.6119045 125.018572,25.039325 M96.8908784,12.4882568 C96.8859352,12.5577909 96.8414466,12.6507227 96.7854239,12.6863136 C95.999458,13.1839273 95.6096057,13.9260636 95.4794352,14.8181432 C95.372992,15.5461091 95.4421966,16.2612227 95.7351625,16.9450295 C95.898617,17.3263136 96.144458,17.6492682 96.4746625,17.9316886 C95.919708,18.6586659 95.2115148,19.0056773 94.3164693,18.9246091 C93.8303898,18.8811091 93.5008443,18.5930864 93.2751057,18.1758818 C92.9916966,17.6542114 92.892833,17.08245 92.8733898,16.5027795 C92.8124239,14.6682 93.0516739,12.8771205 93.7315261,11.1605182 C93.9546284,10.5950182 94.245617,10.0667568 94.7040148,9.65185909 C95.0342193,9.35230227 95.415833,9.18159773 95.872583,9.22773409 C96.2953898,9.26991591 96.5497989,9.53058636 96.7112761,9.89868864 C96.9175716,10.3696091 96.9567875,10.8718364 96.9495375,11.3767 C96.9445943,11.7474386 96.9192193,12.1181773 96.8908784,12.4882568 M138.27289,12.5782227 C137.89556,12.3900523 137.490878,12.3386432 137.078287,12.3860977 C136.720072,12.4266318 136.476537,12.6124955 136.352958,12.9773023 C136.097231,13.7322909 135.832606,14.4862909 135.537992,15.2267795 C135.14781,16.2068477 134.657447,17.1355068 133.933765,17.9175182 C133.680344,18.1913705 133.392651,18.4335864 133.121106,18.6906318 C133.106935,18.6787682 133.093424,18.6672341 133.079253,18.6553705 C133.087162,18.6065977 133.094742,18.557825 133.102981,18.5097114 C133.361674,17.042575 133.64014,15.5790636 133.872799,14.1083023 C134.107765,12.6240295 134.309776,11.1348136 134.500583,9.64395 C134.589231,8.95322273 134.657447,8.25491591 134.660742,7.55990455 C134.664697,6.65035909 134.12556,6.00115455 133.24831,5.76388182 C132.378969,5.52858636 131.496447,5.52034773 130.608981,5.64425682 C129.762049,5.76289318 129.22456,6.22162045 129.029469,7.06426818 C129.011344,7.14335909 128.979378,7.22047273 128.964878,7.30055227 C128.749356,8.47439318 128.524276,9.647575 128.325231,10.8247114 C128.075106,12.3070068 127.794333,13.7817227 127.338242,15.2165636 C127.11514,15.9181659 126.878526,16.6158136 126.459344,17.2307455 C126.347958,17.3938705 126.206253,17.5490864 126.046753,17.6634386 C125.739287,17.8832455 125.420617,17.7609841 125.30231,17.4034273 C125.284844,17.3500409 125.272651,17.2943477 125.263094,17.2386545 C125.160606,16.6402 125.224867,16.0410864 125.321094,15.4541659 C125.542219,14.1086318 125.793992,12.7683705 126.045435,11.4277795 C126.231958,10.4338705 126.46264,9.44754091 126.627083,8.45000682 C126.772742,7.566825 126.38981,6.92651818 125.555731,6.59598409 C124.579287,6.20876818 123.557697,6.13264318 122.531822,6.31587045 C121.632162,6.47602955 121.011628,7.00626818 120.736458,7.89900682 C120.318594,9.25541591 120.070447,10.6460977 119.898753,12.0519386 C119.853606,12.4193818 119.848662,12.7980295 119.753753,13.1526205 C119.482208,14.1745409 119.079833,15.1509841 118.619787,16.1033705 C118.332094,16.6988591 118.011447,17.2762227 117.587322,17.7880068 C117.361253,18.0608705 117.112776,18.3126432 116.763458,18.4276545 C116.31989,18.5736432 116.033515,18.4012909 115.957719,17.9458591 C115.944208,17.8651205 115.938276,17.7830636 115.93564,17.7016659 C115.909276,16.9381091 116.081299,16.2028932 116.26156,15.4696545 C116.623731,13.9932909 117.015231,12.5238477 117.346094,11.0405636 C117.53789,10.1801205 117.596219,9.29759773 117.444628,8.41540455 C117.230424,7.16774545 116.456981,6.30631364 115.288083,6.08024545 C113.849617,5.80177955 112.469151,6.01334773 111.167117,6.67935909 C110.073356,7.23892727 109.259378,8.10233636 108.602924,9.125575 C108.566015,9.18258636 108.527787,9.23926818 108.480003,9.31077955 C108.501094,9.01715455 108.534378,8.75450682 108.535037,8.49185909 C108.537015,7.62218864 108.096742,7.04812045 107.258708,6.83062045 C106.527447,6.64113182 105.786958,6.69517727 105.045481,6.77130227 C103.859447,6.89323409 103.107424,7.52991591 102.833901,8.68431364 C102.582128,9.74742727 102.369572,10.8200977 102.156026,11.8917795 C102.017617,12.5861318 101.971151,13.2986091 101.702242,13.9656091 C101.475844,14.5284727 101.238242,15.0817795 100.798299,15.5177682 C100.58739,15.7267 100.345503,15.8862 100.040344,15.9814386 C100.047924,15.9125636 100.053526,15.8700523 100.057151,15.8275409 C100.10164,15.2640182 100.177435,14.700825 100.180731,14.1373023 C100.183367,13.6093705 100.068026,13.098575 99.6488443,12.7116886 C99.6102875,12.6764273 99.6073216,12.5864614 99.6122648,12.5235182 C99.6972875,11.4650182 99.6920148,10.4104727 99.4303557,9.37306364 C99.0536852,7.88055227 98.2163102,6.76635909 96.7010602,6.31685909 C94.7148898,5.72796136 92.8124239,6.01137045 91.0417761,7.07646136 C89.5018102,8.00347273 88.4607761,9.37240455 87.727867,10.9898136 C87.1027193,12.3692909 86.7820716,13.8245636 86.6841966,15.3299273 C86.618617,16.3436091 86.6308102,17.3559727 86.897083,18.3472455 C87.4042534,20.232575 88.543492,21.5148364 90.4617761,22.0276091 C91.5706966,22.3245295 92.6944466,22.27345 93.8139125,22.0836318 C95.9635375,21.718825 97.6728898,20.6636205 98.8641966,18.8152 C98.9294466,18.7140295 98.9996398,18.681075 99.1192648,18.6698705 C99.6442307,18.6197795 100.169197,18.5640864 100.690537,18.485325 C100.926492,18.4500636 101.153549,18.3568023 101.397412,18.28595 C101.397412,18.7077682 101.379287,19.1108023 101.401037,19.5115295 C101.451128,20.4164614 101.916117,20.9460409 102.79831,21.1035636 C103.605697,21.247575 104.41506,21.2047341 105.220799,21.0752227 C105.647231,21.0063477 106.051583,20.8722227 106.398594,20.6033136 C106.914992,20.2032455 107.081083,19.6311545 107.174674,19.0208364 C107.493015,16.9397568 107.998537,14.9061318 108.769344,12.9440182 C109.045503,12.2417568 109.349674,11.5454273 109.844322,10.9637795 C110.02689,10.7492455 110.25889,10.5534955 110.508026,10.4246432 C110.857344,10.2440523 111.115708,10.39795 111.173708,10.7884614 C111.207651,11.0155182 111.218197,11.2547682 111.185572,11.4808364 C111.138776,11.8093932 111.055731,12.1336659 110.966094,12.4543136 C110.696526,13.4221886 110.390049,14.3805068 110.146844,15.3549727 C109.861787,16.4968477 109.736231,17.6598136 109.933299,18.8339841 C110.180458,20.3090295 110.992128,21.3075523 112.449708,21.7303591 C113.188219,21.9445636 113.946174,21.9864159 114.712367,21.9439045 C116.516958,21.8437227 118.068458,21.1757341 119.32864,19.8720523 C119.664117,19.5253705 119.95939,19.1398023 120.27839,18.7657682 C120.301787,18.8102568 120.329469,18.8652909 120.359458,18.9193364 C121.091708,20.2526773 122.197003,20.9361545 123.737958,20.8349841 C124.934537,20.7562227 125.910651,20.218075 126.720674,19.3526886 C126.781969,19.2874386 126.842276,19.2208705 126.94081,19.1144273 C126.923344,19.2419614 126.916753,19.3098477 126.905549,19.377075 C126.824151,19.8545864 126.734844,20.33045 126.663992,20.80895 C126.640265,20.9707568 126.576992,21.0313932 126.414526,21.0679727 C125.232117,21.3365523 124.047401,21.595575 122.875537,21.9040295 C121.963356,22.1445977 121.078526,22.4738136 120.272458,22.9823023 C119.293708,23.5995409 118.800049,24.4652568 118.883094,25.6387682 C118.962185,26.7546091 119.449583,27.6124159 120.46656,28.1162909 C120.801378,28.2820523 121.163878,28.4115636 121.527697,28.4949386 C122.802708,28.7865864 124.088924,28.7556091 125.370856,28.5381091 C127.304958,28.2098818 128.896333,27.2855068 130.126197,25.7524614 C130.99389,24.6712227 131.60256,23.4482795 132.061947,22.1482227 C132.144662,21.914575 132.270549,21.7890182 132.503537,21.7000409 C134.431049,20.9654841 136.02539,19.8008705 137.149799,18.0427455 C137.986185,16.73445 138.495003,15.2926886 138.859151,13.7955636 C138.989981,13.2610409 138.765231,12.8243932 138.27289,12.5782227" id="Fill-1"></path>
                        <path d="M55.4223614,25.0386989 C55.1208273,25.3768125 54.7645886,25.6203466 54.2916909,25.641767 C54.0128955,25.6539602 53.7532136,25.6071648 53.6213955,25.3273807 C53.4823273,25.032767 53.4951795,24.7285966 53.715975,24.4807784 C53.8461455,24.3351193 54.0152023,24.1960511 54.1951341,24.129483 C54.6700091,23.9541648 55.1583955,23.814108 55.6451341,23.6717443 C55.8412136,23.6144034 56.04685,23.5877102 56.2834636,23.5395966 C56.0511341,24.1050966 55.8029864,24.6109489 55.4223614,25.0386989 M27.2930205,12.4998239 C27.2903841,12.5634261 27.2465545,12.6500966 27.1948159,12.6827216 C26.4338955,13.1615511 26.0387705,13.8720511 25.8967364,14.7364489 C25.7675545,15.5230739 25.8216,16.2998125 26.1821227,17.0195398 C26.3501909,17.3563352 26.6062477,17.648642 26.8326455,17.9758807 C26.4032477,18.6537557 25.3912136,19.0848011 24.5772364,18.9035511 C24.1620091,18.811608 23.8792591,18.5466534 23.6808727,18.1825057 C23.3968045,17.6614943 23.2962932,17.089733 23.2765205,16.510392 C23.2132477,14.668892 23.4551341,12.8718807 24.1376227,11.1496761 C24.3594068,10.590767 24.6494068,10.0690966 25.1008841,9.65617614 C25.3424409,9.43538068 25.6179409,9.27917614 25.948475,9.23534659 C26.4912364,9.16317614 26.8998727,9.36617614 27.0962818,9.87697159 C27.22085,10.2009148 27.3101568,10.553858 27.3286114,10.8985625 C27.3572818,11.4301193 27.3147705,11.9659602 27.2930205,12.4998239 M68.7000773,12.591767 C68.3807477,12.4240284 68.0357136,12.3680057 67.6784864,12.3729489 C67.13935,12.380858 66.8984523,12.5535398 66.7323614,13.0590625 C66.3609636,14.1880852 65.9724295,15.309858 65.4118727,16.3627557 C64.96435,17.2040852 64.4113727,17.9613807 63.6570432,18.5575284 C63.6076114,18.5967443 63.5548841,18.6326648 63.474475,18.6909943 C63.4893045,18.6036648 63.4958955,18.5611534 63.5031455,18.518642 C63.7631568,17.0452443 64.0426114,15.5754716 64.2765886,14.0987784 C64.5118841,12.6145057 64.714225,11.1249602 64.9043727,9.63442614 C64.9930205,8.94369886 65.0599182,8.24539205 65.0628841,7.55005114 C65.0661795,6.65269886 64.5240773,6.00151705 63.6596795,5.7655625 C62.8094523,5.53257386 61.9450545,5.52565341 61.0760432,5.63077841 C60.1717705,5.74051705 59.6072591,6.23022159 59.4118386,7.12724432 C59.3169295,7.56323295 59.2210318,7.99889205 59.1412818,8.43751705 C58.8608386,9.97715341 58.6061,11.5214034 58.3039068,13.0570852 C58.0811341,14.1854489 57.7736682,15.2950284 57.3244977,16.3584716 C57.1409409,16.7938011 56.9395886,17.2222102 56.5932364,17.558017 C56.4337364,17.7122443 56.2488614,17.8176989 56.0138955,17.7442102 C55.7815659,17.6720398 55.6906114,17.4766193 55.6747932,17.2660398 C55.6464523,16.897608 55.6046,16.5196193 55.6543614,16.1577784 C55.8197932,14.9565852 56.0003841,13.7567102 56.2192023,12.5640852 C56.456475,11.2729261 56.7566909,9.99297159 57.0045091,8.70346023 C57.2233273,7.56586932 56.7992023,6.84317614 55.7215886,6.50275568 C54.8334636,6.22198295 53.9183159,6.14585795 52.9988841,6.3020625 C52.0748386,6.45859659 51.4262932,6.97499432 51.142225,7.89080114 C50.7213955,9.24589205 50.475225,10.637233 50.3022136,12.0427443 C50.2560773,12.4167784 50.2521227,12.8023466 50.1535886,13.1618807 C49.8283273,14.3465966 49.3616909,15.4792443 48.7856455,16.5650966 C48.5025659,17.0992898 48.1980659,17.6252443 47.7482364,18.039483 C47.5725886,18.2012898 47.3587136,18.3466193 47.1362705,18.4283466 C46.7170886,18.5829034 46.4363159,18.3937443 46.3621682,17.9547898 C46.3476682,17.8684489 46.3410773,17.7801307 46.3384409,17.692142 C46.3133955,16.9289148 46.4864068,16.1936989 46.6666682,15.4607898 C47.02785,13.9906875 47.4167136,12.5268466 47.7469182,11.0498239 C47.9387136,10.1893807 47.9980318,9.30751705 47.8487477,8.42466477 C47.6299295,7.1285625 46.8696682,6.31623295 45.5880659,6.0628125 C44.4949636,5.84630114 43.4189977,5.97416477 42.3723614,6.33172159 C40.9025886,6.83427841 39.8374977,7.83477841 39.0100091,9.11736932 C38.9704636,9.17866477 38.9302591,9.23930114 38.8821455,9.31344886 C38.9025773,9.02608523 38.9371795,8.76376705 38.9381682,8.50111932 C38.940475,7.61991477 38.5021795,7.04353977 37.6519523,6.82999432 C36.8439068,6.62732386 36.0279523,6.68038068 35.2159523,6.81219886 C34.6962591,6.8965625 34.2200659,7.08308523 33.8519636,7.47886932 C33.5359295,7.81863068 33.3612705,8.23649432 33.2340659,8.67413068 C32.8827705,9.88422159 32.6642818,11.1226534 32.4846795,12.3666875 C32.3564864,13.2534943 32.1234977,14.0987784 31.6828955,14.8807898 C31.4505659,15.2927216 31.1526568,15.6459943 30.7226,15.8667898 C30.6388955,15.9099602 30.5486,15.9402784 30.4385318,15.9854261 C30.4480886,15.9099602 30.45435,15.8733807 30.4573159,15.8364716 C30.5027932,15.267017 30.5795773,14.6975625 30.5828727,14.1277784 C30.5858386,13.6070966 30.4701682,13.1009148 30.0572477,12.7189716 C30.0233045,12.6876648 30.0078159,12.620108 30.0097932,12.5703466 C30.0163841,12.3821761 30.037475,12.1940057 30.0470318,12.0055057 C30.0941568,11.0705852 30.04835,10.1429148 29.7965773,9.23633523 C29.3741,7.7158125 28.4563159,6.65203977 26.8962477,6.25526705 C24.9690659,5.76457386 23.1361341,6.04996023 21.4363386,7.0814375 C19.8990091,8.01372159 18.8586341,9.38034659 18.1270432,10.9987443 C17.4953045,12.3966761 17.1749864,13.8710625 17.0827136,15.3961989 C17.0194409,16.4359148 17.0428386,17.4720057 17.3371227,18.4837102 C17.8505545,20.2490852 18.9390432,21.4644489 20.7281455,21.991392 C21.7866455,22.303142 22.8662364,22.2780966 23.9464864,22.1258466 C26.2187023,21.8055284 28.0298841,20.7430739 29.2828159,18.7915057 C29.3427932,18.6975852 29.4123273,18.6791307 29.5131682,18.6718807 C29.8957705,18.6451875 30.2806795,18.6287102 30.6580091,18.5674148 C31.0396227,18.5061193 31.4136568,18.3963807 31.7995545,18.3054261 C31.7995545,18.6989034 31.7820886,19.101608 31.8035091,19.5023352 C31.8522818,20.417483 32.3126568,20.943108 33.2109977,21.1045852 C34.0117932,21.2485966 34.815225,21.2037784 35.6147023,21.077233 C36.0411341,21.0086875 36.4458159,20.8762102 36.7941455,20.6092784 C37.31285,20.211517 37.4825659,19.6400852 37.5761568,19.0300966 C37.8935091,16.9549489 38.3954068,14.9269261 39.1629182,12.9704148 C39.4433614,12.2556307 39.7607136,11.5563352 40.2477818,10.9516193 C40.4428727,10.709733 40.6603727,10.4905852 40.9688273,10.3946875 C41.2828841,10.297142 41.48885,10.4075398 41.5672818,10.7239034 C41.5989182,10.8507784 41.6315432,10.9891875 41.6127591,11.1147443 C41.5455318,11.5606193 41.4842364,12.0101193 41.3685659,12.4444602 C41.1088841,13.4215625 40.7912023,14.3838352 40.5470091,15.364892 C40.2645886,16.5001761 40.1492477,17.6555625 40.3321455,18.8254489 C40.5763386,20.3871648 41.5339977,21.4242443 43.0630886,21.7834489 C44.0596341,22.0177557 45.0604636,22.0101761 46.0609636,21.8332102 C47.8431455,21.5184943 49.2476682,20.5865398 50.3467023,19.1688352 C50.4524864,19.032733 50.554975,18.8939943 50.6683386,18.7443807 C50.7391909,18.8729034 50.7962023,18.9846193 50.8601341,19.0917216 C51.5317477,20.2148125 52.5065432,20.8389716 53.8299977,20.845892 C55.0420659,20.8528125 56.0666227,20.3851875 56.9333273,19.5497898 C57.0631682,19.4245625 57.2084977,19.315483 57.3294409,19.2133239 C57.3261455,19.2370511 57.3212023,19.3032898 57.3099977,19.3685398 C57.2279409,19.851983 57.1386341,20.3344375 57.065475,20.8188693 C57.0424068,20.9730966 56.9778159,21.0310966 56.826225,21.0660284 C55.6019636,21.3487784 54.3744068,21.6196648 53.1606909,21.9409716 C52.2666341,22.1769261 51.4002591,22.505483 50.620225,23.020233 C49.1530886,23.988108 48.8120091,25.9367102 49.8728159,27.312892 C50.3908614,27.9858239 51.1184977,28.3176761 51.9209409,28.4972784 C53.1972705,28.7833239 54.4818386,28.755642 55.7647591,28.5391307 C57.7130318,28.2102443 59.3116568,27.2782898 60.5464636,25.7304148 C61.4230545,24.6307216 62.0281,23.3850398 62.4967136,22.0691648 C62.5596568,21.892858 62.6525886,21.7989375 62.8282364,21.7330284 C64.6727023,21.0363693 66.2354068,19.9597443 67.3690432,18.3169602 C68.3184636,16.9404489 68.8721,15.3955398 69.2636,13.7860398 C69.3898159,13.2673352 69.1739636,12.8405739 68.7000773,12.591767" id="Fill-4"></path>
                        <path d="M78.9616943,15.3038932 C78.6127057,16.09645 78.1935239,16.8534159 77.530808,17.4314386 C77.2895807,17.6420182 77.0005693,17.8249159 76.7020011,17.9366318 C75.8323307,18.2622227 75.204217,17.8433705 75.199933,16.9133932 C75.196308,16.1099614 75.2315693,15.3015864 75.3258193,14.5044159 C75.7113875,11.2356545 76.3767398,8.01731364 77.1080011,4.81116591 C77.1416148,4.66418864 77.1940125,4.61508636 77.3416489,4.62365455 C77.756217,4.64705227 78.1740807,4.62991591 78.5843648,4.67967727 C79.5950807,4.80226818 80.1549784,5.37534773 80.3266716,6.41802955 C80.3540239,6.58543864 80.3853307,6.75350682 80.3965352,6.92223409 C80.4215807,7.31142727 80.435092,7.70127955 80.4492625,8.00643864 C80.3731375,10.5831545 79.9720807,13.0069614 78.9616943,15.3038932 M82.3042739,0.970972727 C81.0355239,0.529381818 79.7199784,0.368893182 78.3882852,0.376802273 C77.2510239,0.383393182 76.1117852,0.432825 74.9774898,0.521472727 C73.2434216,0.656915909 71.5406602,0.985472727 69.8797511,1.50945 C69.2401034,1.71146136 68.5955125,1.91050682 68.0280352,2.28981364 C67.5442625,2.61309773 67.2634898,3.05633636 67.2094443,3.64259773 C67.166933,4.10692727 67.2222966,4.56104091 67.3429102,5.00592727 C67.5485466,5.76552955 67.878092,6.45823409 68.5019216,6.97100682 C68.9850352,7.36810909 69.5096716,7.45939318 70.0755011,7.14401818 C70.3114557,7.01285909 70.5474102,6.88071136 70.7836943,6.74988182 C70.9033193,6.68397273 71.0236034,6.62037045 71.176842,6.53765455 C71.1445466,6.69023409 71.1221375,6.805575 71.0957739,6.91992727 C70.4165807,9.84925682 69.8181261,12.7920977 69.6952057,15.8094159 C69.6566489,16.7538932 69.6553307,17.6967227 69.8662398,18.6260409 C70.2653193,20.3844955 71.3192057,21.4799045 73.1109443,21.8288932 C74.0801375,22.0173932 75.0509784,21.9811432 76.0224784,21.8592114 C77.7812625,21.639075 79.3986716,21.0337 80.8635011,20.0381432 C83.1624102,18.4767568 84.6842511,16.3231773 85.6162057,13.7303136 C86.1431489,12.2641659 86.4219443,10.7472682 86.5096034,9.19543864 C86.5844102,7.87165455 86.5494784,6.55446136 86.2149898,5.26033636 C85.6669557,3.14168864 84.3837057,1.69366591 82.3042739,0.970972727" id="Fill-6"></path>
                        <path d="M9.86672273,9.58674091 C9.14172273,9.9934 8.28754091,10.21815 7.45741591,10.24715 C7.54738182,9.73569545 7.62548409,9.24038864 7.72335909,8.74870682 C7.99029091,7.40515 8.270075,6.06422955 8.53338182,4.72001364 C8.57127955,4.52591136 8.63092727,4.43957045 8.84546136,4.42408182 C9.36218864,4.38651364 9.87529091,4.36805909 10.3854273,4.47615 C11.4211886,4.69562727 11.9085864,5.31747955 11.87695,6.37696818 C11.8331205,7.83883182 11.1176773,8.88480909 9.86672273,9.58674091 M9.37504091,17.5139568 C8.93443864,17.9535705 8.39398409,18.1835932 7.75960909,18.1631614 C7.31933636,18.1489909 7.02735909,17.9288545 6.87214318,17.5241727 C6.68463182,17.036775 6.66354091,16.5253205 6.70934773,16.0168318 C6.78843864,15.1405705 6.899825,14.2666159 6.99308636,13.3916727 C7.00527955,13.2753432 7.05602955,13.2298659 7.16840455,13.2216273 C7.55726818,13.1939455 7.94580227,13.16165 8.473075,13.1197977 C8.71924545,13.1511045 9.10613182,13.1665932 9.47555227,13.2555705 C10.0545636,13.3952977 10.4131091,13.7904227 10.4503477,14.3869 C10.5241659,15.5699682 10.2400977,16.6508773 9.37504091,17.5139568 M14.0486545,11.5247977 C13.6578136,11.3066386 13.2300636,11.1534 12.8306545,10.9754455 C12.8530636,10.9662182 12.9044727,10.9461159 12.9552227,10.9243659 C13.3463932,10.7543205 13.7556886,10.6162409 14.1257682,10.4082977 C16.1013932,9.29772955 17.3385068,7.677025 17.5006432,5.35669545 C17.5668818,4.40793409 17.4324273,3.48355909 16.9493136,2.64157045 C16.419075,1.71719545 15.5803818,1.19091136 14.6003136,0.857081818 C13.4795295,0.475468182 12.3149159,0.371661364 11.1433818,0.341013636 C9.47423409,0.297843182 7.80838182,0.377263636 6.14912045,0.562468182 C4.73537045,0.72065 3.33710909,0.963854545 1.97509773,1.38732045 C1.19012045,1.63184318 0.538609091,2.04443409 0.245643182,2.855775 C-0.0272204545,3.61241136 -0.0812659091,4.39376364 0.126018182,5.175775 C0.265086364,5.69942273 0.536302273,6.1509 1.12388182,6.23328636 C1.43200682,6.27645682 1.76352955,6.22636591 2.07363182,6.16342273 C2.44008636,6.08960455 2.79500682,5.95646818 3.18980227,5.83882045 C3.15816591,5.94295682 3.137075,6.01380909 3.11499545,6.08499091 C2.24334773,8.89996818 1.47385909,11.7363659 1.30875682,14.6989795 C1.23922273,15.9476273 1.28865455,17.1903432 1.629075,18.4043886 C1.91413182,19.4193886 2.41800682,20.2936727 3.30514318,20.9062977 C4.02091591,21.4006159 4.83291591,21.6306386 5.68413182,21.7407068 C6.74559773,21.8784568 7.80673409,21.8412182 8.86490455,21.7028091 C10.2279045,21.5241955 11.5385068,21.1696045 12.7512341,20.5032636 C13.780075,19.9377636 14.6424955,19.1916727 15.2244727,18.1578886 C15.9148705,16.9319795 16.1093023,15.6111614 15.8891659,14.2356386 C15.7006659,13.0552068 15.1088023,12.1173205 14.0486545,11.5247977" id="Fill-8"></path>
                    </g>
                </g>
            </g>
        </g>
    </g>
</svg>